<?xml version="1.0" encoding="UTF-8"?>
<svg version="1.1" xmlns="http://www.w3.org/2000/svg" width="500" height="500">
<path d="M0 0 C0.89783203 0.01482422 1.79566406 0.02964844 2.72070312 0.04492188 C9.22822841 0.33038209 9.22822841 0.33038209 12.32421875 2.98046875 C14.32361854 6.64522816 16.06385273 10.34303978 17.6875 14.1875 C18.39029548 15.81060328 19.0947628 17.43298355 19.80078125 19.0546875 C20.33372803 20.28203613 20.33372803 20.28203613 20.87744141 21.53417969 C22.47632602 25.15910372 24.17074412 28.73619635 25.875 32.3125 C28.81858313 38.50344984 31.64959922 44.73750575 34.4375 51 C37.47285027 57.80922225 40.67223974 64.50012933 44.05859375 71.14086914 C46.35288811 75.67404287 48.43820766 80.26737561 50.4375 84.9375 C53.06159153 91.06512047 55.9211412 97.03017079 58.93945312 102.97265625 C62.4423104 109.88240211 65.70168314 116.89959833 68.9375 123.9375 C71.01940751 121.28167338 72.70287043 118.66313457 74.21484375 115.6484375 C74.63983154 114.8023291 75.06481934 113.9562207 75.50268555 113.08447266 C75.95554932 112.16972168 76.40841309 111.2549707 76.875 110.3125 C77.59200073 108.87269775 77.59200073 108.87269775 78.32348633 107.40380859 C82.60592934 98.73886224 86.64999268 89.96979352 90.67236328 81.18188477 C93.55993929 74.88431253 96.51751861 68.64335488 99.65576172 62.4675293 C102.93831016 55.98925044 106.1014447 49.45377913 109.26260376 42.91571045 C110.24509679 40.88513375 111.23015602 38.85581769 112.21557617 36.82666016 C115.26319618 30.54114882 118.27320706 24.24493353 121.17578125 17.890625 C121.66715576 16.82593994 122.15853027 15.76125488 122.66479492 14.66430664 C123.57358533 12.68814389 124.46905996 10.70578406 125.34887695 8.71655273 C125.75195068 7.84458252 126.15502441 6.9726123 126.5703125 6.07421875 C126.90949707 5.31842529 127.24868164 4.56263184 127.59814453 3.78393555 C129.41235087 1.28287055 130.99020903 0.76930723 133.9375 -0.0625 C137.46526566 -0.37380469 140.96486898 -0.15727825 144.5 0 C145.44552734 0.01482422 146.39105469 0.02964844 147.36523438 0.04492188 C154.2382701 0.33150075 154.2382701 0.33150075 157.3984375 3.0703125 C159.10644951 6.2522435 160.61099074 9.41424631 162 12.75 C162.60468626 14.17406404 163.21160778 15.59718023 163.8203125 17.01953125 C164.15321289 17.79893066 164.48611328 18.57833008 164.82910156 19.38134766 C166.9458372 24.26289437 169.16174491 29.09914124 171.375 33.9375 C172.01997437 35.35832886 172.01997437 35.35832886 172.67797852 36.80786133 C175.28087652 42.49431845 178.00883354 48.10250184 180.828125 53.68359375 C184.52517667 61.01405278 187.96390381 68.44153849 191.3223877 75.93215942 C196.40824533 87.26959288 201.60103368 98.54456489 207.00830078 109.73291016 C210.30680011 116.57246364 213.4826003 123.46247826 216.625 130.375 C219.72245074 137.18427188 222.8725777 143.949769 226.25 150.625 C226.56799561 151.25510986 226.88599121 151.88521973 227.21362305 152.53442383 C227.52082275 153.14310303 227.82802246 153.75178223 228.14453125 154.37890625 C229.93366062 157.9298798 231.70939033 161.4814056 233.4375 165.0625 C233.9221875 166.05507813 234.406875 167.04765625 234.90625 168.0703125 C236.03408506 171.20603574 236.13374624 173.63075087 235.9375 176.9375 C228.09941162 180.85654419 212.99772059 179.85754011 204.5 178.3125 C198.41397012 175.04682543 196.06519568 167.09812865 193.4375 161.0625 C192.67873573 159.33521069 191.918337 157.60863838 191.15625 155.8828125 C190.79015625 155.05168945 190.4240625 154.22056641 190.046875 153.36425781 C188.98171389 151.03421788 187.83701205 148.76536232 186.65625 146.4921875 C184.9375 142.9375 184.9375 142.9375 184.9375 139.9375 C176.80790285 140.04633771 168.67837472 140.15920263 160.5489006 140.27683926 C156.77171845 140.33137787 152.99452834 140.38466535 149.21728516 140.43481445 C132.77488769 140.65399449 116.35403531 140.9130378 99.9375 141.9375 C99.63569824 142.5766333 99.33389648 143.2157666 99.02294922 143.87426758 C97.62280128 146.83443546 96.2176752 149.79221542 94.8125 152.75 C94.338125 153.75482422 93.86375 154.75964844 93.375 155.79492188 C91.9190659 158.85435097 90.43423237 161.89783982 88.9375 164.9375 C88.44411133 165.96407715 87.95072266 166.9906543 87.44238281 168.04833984 C83.78494125 175.28807006 83.78494125 175.28807006 80.12890625 178.08984375 C75.98013309 179.19178228 72.15479997 179.48946727 67.875 179.5 C66.69067383 179.55510742 66.69067383 179.55510742 65.48242188 179.61132812 C61.34286918 179.64255694 59.50597978 179.40793761 56.2421875 176.70703125 C52.73219776 171.63271737 50.525876 165.71202989 48.125 160.0625 C47.05916534 157.60163391 45.98508975 155.14440302 44.91015625 152.6875 C44.39598145 151.51058594 43.88180664 150.33367187 43.35205078 149.12109375 C41.41645813 144.76484104 39.31963272 140.51936366 37.14819336 136.27563477 C33.72310667 129.5679215 30.45566173 122.78510328 27.1875 116 C26.88673553 115.37589233 26.58597107 114.75178467 26.27609253 114.10876465 C24.45379446 110.32688251 22.63348805 106.54404574 20.81427002 102.76068115 C19.96879182 101.00256911 19.12283287 99.24468829 18.27685547 97.48681641 C11.78340055 83.99244994 5.33275839 70.47866775 -1.0625 56.9375 C-1.55008789 57.91412598 -2.03767578 58.89075195 -2.54003906 59.89697266 C-5.67623205 66.17555819 -8.81414072 72.45314864 -11.97827148 78.7177124 C-19.24378259 93.10257846 -26.35733528 107.52079867 -33.04370117 122.1862793 C-35.9258229 128.50258697 -38.89752016 134.75077172 -42.04785156 140.93725586 C-45.57267996 147.87801999 -48.88899889 154.91832592 -52.20727539 161.9597168 C-58.96010986 176.20257324 -58.96010986 176.20257324 -63.0625 178.9375 C-66.01757813 179.19628906 -66.01757813 179.19628906 -69.59375 179.203125 C-70.87894531 179.20570313 -72.16414063 179.20828125 -73.48828125 179.2109375 C-74.15682129 179.20674805 -74.82536133 179.20255859 -75.51416016 179.19824219 C-77.55531547 179.18753768 -79.59559075 179.19814663 -81.63671875 179.2109375 C-82.92191406 179.20835937 -84.20710938 179.20578125 -85.53125 179.203125 C-86.71138672 179.20086914 -87.89152344 179.19861328 -89.10742188 179.19628906 C-92.0625 178.9375 -92.0625 178.9375 -95.0625 176.9375 C-94.48664725 171.27951819 -92.36921613 166.71518934 -90 161.625 C-89.5987793 160.74924316 -89.19755859 159.87348633 -88.78417969 158.97119141 C-87.55205125 156.28930052 -86.30890897 153.61277988 -85.0625 150.9375 C-84.6907666 150.13618652 -84.3190332 149.33487305 -83.93603516 148.50927734 C-80.90847718 141.98976129 -77.86643729 135.47899702 -74.625 129.0625 C-68.92688008 117.7806037 -63.64128772 106.29427524 -58.5 94.75 C-55.92309804 88.96697179 -53.2669822 83.25687549 -50.375 77.625 C-45.63558489 68.38141621 -41.46939771 58.86610892 -37.24926758 49.37768555 C-33.9131909 41.89929152 -30.39917379 34.56081387 -26.69848633 27.25439453 C-25.16420029 24.14369313 -23.74144715 21.01223901 -22.3671875 17.828125 C-21.75810547 16.42046875 -21.75810547 16.42046875 -21.13671875 14.984375 C-20.31903681 13.07733828 -19.51217558 11.16563429 -18.71484375 9.25 C-18.10962891 7.86554688 -18.10962891 7.86554688 -17.4921875 6.453125 C-16.96987549 5.21997559 -16.96987549 5.21997559 -16.43701172 3.96191406 C-12.7291983 -1.4990431 -5.81179533 -0.27236243 0 0 Z M140.9375 51.9375 C134.62698712 64.97449205 128.38404276 78.03747246 122.3125 91.1875 C121.55018066 92.83661377 121.55018066 92.83661377 120.77246094 94.51904297 C118.72578431 98.96649494 116.75682511 103.38918723 114.9375 107.9375 C132.7575 107.9375 150.5775 107.9375 168.9375 107.9375 C165.66520445 99.71632856 165.66520445 99.71632856 162.01953125 91.72265625 C161.49125732 90.63251221 160.9629834 89.54236816 160.41870117 88.41918945 C159.86802979 87.29085693 159.3173584 86.16252441 158.75 85 C157.59586239 82.62003009 156.44221983 80.23982004 155.2890625 77.859375 C154.72348633 76.69341797 154.15791016 75.52746094 153.57519531 74.32617188 C151.23287072 69.47950143 148.92421841 64.61723799 146.625 59.75 C146.24641846 58.94892822 145.86783691 58.14785645 145.4777832 57.32250977 C144.63025279 55.52786964 143.78373832 53.73274976 142.9375 51.9375 C142.2775 51.9375 141.6175 51.9375 140.9375 51.9375 Z " fill="#7B60D4" transform="translate(177.0625,155.0625)"/>
<path d="M0 0 C0.89783203 0.01482422 1.79566406 0.02964844 2.72070312 0.04492188 C9.22822841 0.33038209 9.22822841 0.33038209 12.32421875 2.98046875 C14.32361854 6.64522816 16.06385273 10.34303978 17.6875 14.1875 C18.39029548 15.81060328 19.0947628 17.43298355 19.80078125 19.0546875 C20.33372803 20.28203613 20.33372803 20.28203613 20.87744141 21.53417969 C22.47632602 25.15910372 24.17074412 28.73619635 25.875 32.3125 C28.81858313 38.50344984 31.64959922 44.73750575 34.4375 51 C37.47285027 57.80922225 40.67223974 64.50012933 44.05859375 71.14086914 C46.35288811 75.67404287 48.43820766 80.26737561 50.4375 84.9375 C53.06159153 91.06512047 55.9211412 97.03017079 58.93945312 102.97265625 C62.4423104 109.88240211 65.70168314 116.89959833 68.9375 123.9375 C69.9275 123.9375 70.9175 123.9375 71.9375 123.9375 C72.2675 122.9475 72.5975 121.9575 72.9375 120.9375 C73.2675 121.5975 73.5975 122.2575 73.9375 122.9375 C73.61007813 123.67355469 73.28265625 124.40960938 72.9453125 125.16796875 C71.69030354 128.61681121 72.10564172 130.67643872 72.8125 134.25 C73.11800781 135.85294922 73.11800781 135.85294922 73.4296875 137.48828125 C73.68105469 138.70064453 73.68105469 138.70064453 73.9375 139.9375 C74.5975 139.9375 75.2575 139.9375 75.9375 139.9375 C78.24313453 145.03823338 80.48929603 150.16456933 82.6875 155.3125 C83.11546875 156.31023437 83.5434375 157.30796875 83.984375 158.3359375 C84.9375 160.9375 84.9375 160.9375 84.9375 163.9375 C85.5975 163.9375 86.2575 163.9375 86.9375 163.9375 C86.9375 164.5975 86.9375 165.2575 86.9375 165.9375 C86.2775 165.9375 85.6175 165.9375 84.9375 165.9375 C85.185 166.63875 85.4325 167.34 85.6875 168.0625 C85.9375 170.9375 85.9375 170.9375 84.3125 174.125 C81.44683534 177.51855025 79.35153499 178.63640528 74.92724609 179.18823242 C72.59363436 179.35026759 70.27638404 179.40712488 67.9375 179.4375 C67.1434375 179.47875 66.349375 179.52 65.53125 179.5625 C61.3717712 179.61795972 59.5240148 179.42131105 56.23828125 176.7109375 C52.73432158 171.63251797 50.52600088 165.71232374 48.125 160.0625 C47.05916534 157.60163391 45.98508975 155.14440302 44.91015625 152.6875 C44.39598145 151.51058594 43.88180664 150.33367187 43.35205078 149.12109375 C41.41645813 144.76484104 39.31963272 140.51936366 37.14819336 136.27563477 C33.72310667 129.5679215 30.45566173 122.78510328 27.1875 116 C26.88673553 115.37589233 26.58597107 114.75178467 26.27609253 114.10876465 C24.45379446 110.32688251 22.63348805 106.54404574 20.81427002 102.76068115 C19.96879182 101.00256911 19.12283287 99.24468829 18.27685547 97.48681641 C11.78340055 83.99244994 5.33275839 70.47866775 -1.0625 56.9375 C-1.55008789 57.91412598 -2.03767578 58.89075195 -2.54003906 59.89697266 C-5.67623205 66.17555819 -8.81414072 72.45314864 -11.97827148 78.7177124 C-19.24378259 93.10257846 -26.35733528 107.52079867 -33.04370117 122.1862793 C-35.9258229 128.50258697 -38.89752016 134.75077172 -42.04785156 140.93725586 C-45.57267996 147.87801999 -48.88899889 154.91832592 -52.20727539 161.9597168 C-58.96010986 176.20257324 -58.96010986 176.20257324 -63.0625 178.9375 C-66.01757813 179.19628906 -66.01757813 179.19628906 -69.59375 179.203125 C-70.87894531 179.20570313 -72.16414063 179.20828125 -73.48828125 179.2109375 C-74.15682129 179.20674805 -74.82536133 179.20255859 -75.51416016 179.19824219 C-77.55531547 179.18753768 -79.59559075 179.19814663 -81.63671875 179.2109375 C-82.92191406 179.20835937 -84.20710938 179.20578125 -85.53125 179.203125 C-86.71138672 179.20086914 -87.89152344 179.19861328 -89.10742188 179.19628906 C-92.0625 178.9375 -92.0625 178.9375 -95.0625 176.9375 C-94.48664725 171.27951819 -92.36921613 166.71518934 -90 161.625 C-89.5987793 160.74924316 -89.19755859 159.87348633 -88.78417969 158.97119141 C-87.55205125 156.28930052 -86.30890897 153.61277988 -85.0625 150.9375 C-84.6907666 150.13618652 -84.3190332 149.33487305 -83.93603516 148.50927734 C-80.90847718 141.98976129 -77.86643729 135.47899702 -74.625 129.0625 C-68.92688008 117.7806037 -63.64128772 106.29427524 -58.5 94.75 C-55.92309804 88.96697179 -53.2669822 83.25687549 -50.375 77.625 C-45.63558489 68.38141621 -41.46939771 58.86610892 -37.24926758 49.37768555 C-33.9131909 41.89929152 -30.39917379 34.56081387 -26.69848633 27.25439453 C-25.16420029 24.14369313 -23.74144715 21.01223901 -22.3671875 17.828125 C-21.75810547 16.42046875 -21.75810547 16.42046875 -21.13671875 14.984375 C-20.31903681 13.07733828 -19.51217558 11.16563429 -18.71484375 9.25 C-18.10962891 7.86554688 -18.10962891 7.86554688 -17.4921875 6.453125 C-16.96987549 5.21997559 -16.96987549 5.21997559 -16.43701172 3.96191406 C-12.7291983 -1.4990431 -5.81179533 -0.27236243 0 0 Z " fill="#6143B7" transform="translate(177.0625,155.0625)"/>
<path d="M0 0 C2.93741007 3.53213517 4.79607079 7.48346568 6.72265625 11.6171875 C7.06880478 12.3519632 7.41495331 13.08673889 7.77159119 13.84378052 C8.50073397 15.39432854 9.22762208 16.94593859 9.95239258 18.49853516 C11.05668766 20.86255723 12.16937167 23.2224899 13.28320312 25.58203125 C13.99269239 27.09351311 14.70169293 28.60522449 15.41015625 30.1171875 C15.90552635 31.16747635 15.90552635 31.16747635 16.41090393 32.23898315 C18.20634461 36.09785725 19.7392386 39.92445086 21 44 C19.515 44.495 19.515 44.495 18 45 C17.60167969 43.99839844 17.20335937 42.99679687 16.79296875 41.96484375 C16.25785964 40.62237704 15.72270072 39.27993019 15.1875 37.9375 C14.92646484 37.28072266 14.66542969 36.62394531 14.39648438 35.94726562 C13.60436431 33.96207583 12.80264127 31.98095578 12 30 C11.73654785 29.33242676 11.4730957 28.66485352 11.20166016 27.97705078 C9.91164977 24.30866388 9.91164977 24.30866388 7 22 C6.3671875 19.93359375 6.3671875 19.93359375 5.875 17.4375 C5.70742188 16.61121094 5.53984375 15.78492188 5.3671875 14.93359375 C5.24601562 14.29550781 5.12484375 13.65742188 5 13 C4.34 13 3.68 13 3 13 C2.49242138 11.58603098 1.99425075 10.16868271 1.5 8.75 C1.08234375 7.56664062 1.08234375 7.56664062 0.65625 6.359375 C0 4 0 4 0 0 Z " fill="#8B78C4" transform="translate(362,220)"/>
<path d="M0 0 C0.66 0.33 1.32 0.66 2 1 C1.36803534 5.11919132 0.02010292 8.45270165 -1.8125 12.1875 C-2.31394531 13.23292969 -2.81539062 14.27835937 -3.33203125 15.35546875 C-5.0491698 18.07795775 -6.01755436 18.94546933 -9 20 C-9 19.01 -9 18.02 -9 17 C-9.66 17 -10.32 17 -11 17 C-11 15.35 -11 13.7 -11 12 C-10.01 12.33 -9.02 12.66 -8 13 C-8 12.01 -8 11.02 -8 10 C-7.38125 9.95875 -6.7625 9.9175 -6.125 9.875 C-5.42375 9.58625 -4.7225 9.2975 -4 9 C-2.84164327 6.02496878 -2.84164327 6.02496878 -2 3 C-1.34 2.67 -0.68 2.34 0 2 C0 1.34 0 0.68 0 0 Z " fill="#6B4DB6" transform="translate(123,313)"/>
<path d="M0 0 C0.66 0.99 1.32 1.98 2 3 C1.39031953 4.68834592 0.71162443 6.35202764 0 8 C-0.12375 9.216875 -0.2475 10.43375 -0.375 11.6875 C-0.58125 12.780625 -0.7875 13.87375 -1 15 C-3 16 -3 16 -5 17 C-5.81870185 20.56206661 -5.81870185 20.56206661 -6 24 C-6.99 24 -7.98 24 -9 24 C-9.48164104 19.29062092 -7.79734698 16.03435868 -5.625 12 C-3.55605098 8.06395065 -1.56415456 4.17107884 0 0 Z " fill="#6E55B0" transform="translate(126,234)"/>
<path d="M0 0 C2.0234375 3.6796875 2.0234375 3.6796875 1.8125 6.5625 C0.93819013 9.18542962 0.04752382 10.20841666 -2 12 C-2.33 12.66 -2.66 13.32 -3 14 C-2.34 14.33 -1.68 14.66 -1 15 C-1.66 15 -2.32 15 -3 15 C-3 16.65 -3 18.3 -3 20 C-4.875 21.0625 -4.875 21.0625 -7 22 C-7.66 21.67 -8.32 21.34 -9 21 C-7.50640515 16.15713185 -5.54966433 11.68649104 -3.375 7.125 C-2.88773437 6.09246094 -2.88773437 6.09246094 -2.390625 5.0390625 C-1.59676528 3.35794781 -0.79880442 1.67877079 0 0 Z " fill="#8975CB" transform="translate(287,196)"/>
<path d="M0 0 C3.15771423 3.15771423 2.62506773 6.62579022 3 11 C8.61 11 14.22 11 20 11 C20 11.33 20 11.66 20 12 C17.10190611 12.16250994 14.21295149 12.28107636 11.3125 12.375 C10.08756836 12.45041016 10.08756836 12.45041016 8.83789062 12.52734375 C2.93220523 12.67080169 2.93220523 12.67080169 0.30224609 10.77832031 C-2.43822238 7.70628899 -3 6.15826579 -3 2 C-2.01 1.34 -1.02 0.68 0 0 Z " fill="#8C72C2" transform="translate(234,322)"/>
<path d="M0 0 C3.33992878 1.66996439 4.10197796 5.38547723 5.5 8.6875 C5.80808594 9.39583984 6.11617188 10.10417969 6.43359375 10.83398438 C8.15569923 14.83621664 9.68968096 18.83973706 11 23 C8 22 8 22 6.9375 20 C6.628125 19.34 6.31875 18.68 6 18 C5.34 17.67 4.68 17.34 4 17 C3.50184592 15.07380424 3.01120234 13.14498792 2.578125 11.203125 C2.01028986 9.03921272 1.24953305 7.15239878 0.3125 5.125 C-0.120625 4.09375 -0.55375 3.0625 -1 2 C-0.67 1.34 -0.34 0.68 0 0 Z " fill="#8A77C2" transform="translate(334,160)"/>
<path d="M0 0 C0.33 0 0.66 0 1 0 C1 3.33333333 1 6.66666667 1 10 C0.34 10 -0.32 10 -1 10 C-1.33 10.99 -1.66 11.98 -2 13 C-2.66 13 -3.32 13 -4 13 C-4.268125 13.969375 -4.53625 14.93875 -4.8125 15.9375 C-5.4003125 17.4534375 -5.4003125 17.4534375 -6 19 C-6.99 19.33 -7.98 19.66 -9 20 C-7.55676531 15.26210835 -5.62773267 11.01141849 -3.375 6.625 C-2.88773437 5.66400391 -2.88773437 5.66400391 -2.390625 4.68359375 C-1.59742593 3.12052499 -0.79922969 1.55999378 0 0 Z " fill="#8B77C6" transform="translate(299,172)"/>
<path d="M0 0 C6.93 0.33 13.86 0.66 21 1 C21 1.33 21 1.66 21 2 C14.73 2 8.46 2 2 2 C2 2.66 2 3.32 2 4 C8.6 4 15.2 4 22 4 C22 4.33 22 4.66 22 5 C11.605 5.495 11.605 5.495 1 6 C0.67 4.02 0.34 2.04 0 0 Z " fill="#987FDB" transform="translate(275,291)"/>
<path d="M0 0 C1.60031344 3.20062687 0.03173691 5.72271806 -1 9 C-1.66 9 -2.32 9 -3 9 C-3.433125 10.423125 -3.433125 10.423125 -3.875 11.875 C-5 15 -5 15 -7 17 C-8 14 -8 14 -6.85546875 11.15234375 C-6.30503906 10.09144531 -5.75460937 9.03054687 -5.1875 7.9375 C-4.64480469 6.87402344 -4.10210937 5.81054688 -3.54296875 4.71484375 C-2 2 -2 2 0 0 Z " fill="#8671C7" transform="translate(277,220)"/>
<path d="M0 0 C0.99 0.33 1.98 0.66 3 1 C1.24009216 6.91969002 -1.39694605 12.41634992 -4 18 C-4.33 18 -4.66 18 -5 18 C-5.17942163 14.05272412 -5.09350689 11.4019487 -3 8 C-2.34 8 -1.68 8 -1 8 C-1.20625 7.4225 -1.4125 6.845 -1.625 6.25 C-2.08661261 3.48032433 -1.42944945 2.35438733 0 0 Z " fill="#8262BE" transform="translate(131,295)"/>
<path d="M0 0 C3.36947542 3.03913469 5.30422175 6.06857693 7.3125 10.125 C8.11107422 11.70667969 8.11107422 11.70667969 8.92578125 13.3203125 C9.28027344 14.20460938 9.63476562 15.08890625 10 16 C9 18 9 18 7 19 C6.01761592 16.58459694 5.03899782 14.16778178 4.0625 11.75 C3.64581055 10.72712891 3.64581055 10.72712891 3.22070312 9.68359375 C1.93024244 6.48076362 0.78199956 3.36162466 0 0 Z " fill="#8571C0" transform="translate(373,246)"/>
<path d="M0 0 C0.33 0 0.66 0 1 0 C1.66 2.64 2.32 5.28 3 8 C1.824375 8.0928125 1.824375 8.0928125 0.625 8.1875 C-0.24125 8.455625 -1.1075 8.72375 -2 9 C-3.23290201 11.45704762 -3.23290201 11.45704762 -4 14 C-4.99 14.495 -4.99 14.495 -6 15 C-4.36041242 9.76727367 -2.61047965 4.84803364 0 0 Z " fill="#8A76C8" transform="translate(266,240)"/>
<path d="M0 0 C0.66 0 1.32 0 2 0 C0.36041242 5.23272633 -1.38952035 10.15196636 -4 15 C-4.33 15 -4.66 15 -5 15 C-5.25 9.375 -5.25 9.375 -3 6 C-3.66 6 -4.32 6 -5 6 C-5 5.34 -5 4.68 -5 4 C-4.360625 3.71125 -3.72125 3.4225 -3.0625 3.125 C-0.84793921 2.17176549 -0.84793921 2.17176549 0 0 Z " fill="#8674C6" transform="translate(313,213)"/>
<path d="M0 0 C1.32 0.33 2.64 0.66 4 1 C3.69404824 4.56943715 2.97575359 6.03014419 0.6875 8.875 C-2 11 -2 11 -4.3125 10.8125 C-4.869375 10.544375 -5.42625 10.27625 -6 10 C-4 8 -4 8 -1 7 C0.20882096 4.99983534 0.20882096 4.99983534 1 3 C0.34 2.67 -0.32 2.34 -1 2 C-0.67 1.34 -0.34 0.68 0 0 Z " fill="#674FAB" transform="translate(259,322)"/>
<path d="M0 0 C0.99 0 1.98 0 3 0 C1.35433477 5.68502535 -1.29032784 10.76681636 -4 16 C-4.33 16 -4.66 16 -5 16 C-4.28610526 10.05087713 -3.3533832 5.03007479 0 0 Z " fill="#7864AF" transform="translate(168,220)"/>
<path d="M0 0 C0.99 0.33 1.98 0.66 3 1 C3 2.32 3 3.64 3 5 C3.66 5 4.32 5 5 5 C6.32 8.3 7.64 11.6 9 15 C8.34 15.66 7.68 16.32 7 17 C5.82866942 14.54379149 4.66278278 12.08525083 3.5 9.625 C3.16613281 8.92632812 2.83226562 8.22765625 2.48828125 7.5078125 C0 2.2265625 0 2.2265625 0 0 Z " fill="#7764B7" transform="translate(214,289)"/>
<path d="M0 0 C2 2 2 2 2.1953125 4.6015625 C2.17210937 5.59929687 2.14890625 6.59703125 2.125 7.625 C2.10695313 8.62789063 2.08890625 9.63078125 2.0703125 10.6640625 C2.03550781 11.82035156 2.03550781 11.82035156 2 13 C-0.55162546 9.78425284 -1.83269511 6.95087809 -3 3 C-2.01 2.01 -1.02 1.02 0 0 Z " fill="#8C76CF" transform="translate(370,304)"/>
<path d="M0 0 C3.39314652 5.08971978 5.44530236 8.76576703 5 15 C4.01 14.67 3.02 14.34 2 14 C-0.2012966 9.24983365 -0.1765235 5.11918146 0 0 Z " fill="#8E7BC7" transform="translate(408,317)"/>
<path d="M0 0 C1 2 1 2 0.1875 5.5 C-1 9 -1 9 -3 11 C-3.64767793 13.57061311 -3.64767793 13.57061311 -4 16 C-4.66 16 -5.32 16 -6 16 C-6 16.66 -6 17.32 -6 18 C-6.66 17.67 -7.32 17.34 -8 17 C-6.85700498 14.35290709 -5.71075628 11.70730948 -4.5625 9.0625 C-4.23701172 8.30775391 -3.91152344 7.55300781 -3.57617188 6.77539062 C-1.11328125 1.11328125 -1.11328125 1.11328125 0 0 Z " fill="#8576BC" transform="translate(107,275)"/>
<path d="M0 0 C2.96659857 3.55991828 5.381348 7.65222543 7 12 C6.67 12.66 6.34 13.32 6 14 C5.34 14 4.68 14 4 14 C1.28608722 9.22642128 -0.56561146 5.65611463 0 0 Z " fill="#9077C3" transform="translate(393,286)"/>
<path d="M0 0 C0.66 0 1.32 0 2 0 C1.51421457 3.12290635 1.0013988 5.99580359 0 9 C-0.61875 8.79375 -1.2375 8.5875 -1.875 8.375 C-2.57625 8.25125 -3.2775 8.1275 -4 8 C-4.66 8.66 -5.32 9.32 -6 10 C-5.42655063 7.13275314 -5.1385485 6.1385485 -3 4 C-3 4.66 -3 5.32 -3 6 C-2.34 6 -1.68 6 -1 6 C-0.67 4.02 -0.34 2.04 0 0 Z " fill="#886ED9" transform="translate(254,269)"/>
<path d="M0 0 C1.79093191 -0.08086147 3.58289628 -0.13912702 5.375 -0.1875 C6.87160156 -0.23970703 6.87160156 -0.23970703 8.3984375 -0.29296875 C9.25695312 -0.19628906 10.11546875 -0.09960938 11 0 C13 3 13 3 13 6 C11.02 6 9.04 6 7 6 C7 5.01 7 4.02 7 3 C7.66 3 8.32 3 9 3 C9 2.34 9 1.68 9 1 C6.03 1 3.06 1 0 1 C0 0.67 0 0.34 0 0 Z " fill="#553CA7" transform="translate(176,157)"/>
<path d="M0 0 C0.66 0 1.32 0 2 0 C2.83819158 1.62249941 3.6704116 3.24808497 4.5 4.875 C4.9640625 5.77992188 5.428125 6.68484375 5.90625 7.6171875 C7 10 7 10 7 12 C5.1875 11.4375 5.1875 11.4375 3 10 C1.21313946 6.49009536 0 3.95875396 0 0 Z " fill="#7D66B4" transform="translate(208,203)"/>
<path d="M0 0 C0.66 0.33 1.32 0.66 2 1 C1.01 2.485 1.01 2.485 0 4 C-0.38499891 5.65549531 -0.72793135 7.3222433 -1 9 C-1.99 9.33 -2.98 9.66 -4 10 C-4.25 7.25 -4.25 7.25 -4 4 C-2 1.625 -2 1.625 0 0 Z " fill="#7A64C2" transform="translate(308,157)"/>
<path d="M0 0 C1.1484375 1.671875 1.1484375 1.671875 2 4 C1.1015625 6.578125 1.1015625 6.578125 -0.375 9.25 C-0.85710937 10.14203125 -1.33921875 11.0340625 -1.8359375 11.953125 C-2.22007812 12.62859375 -2.60421875 13.3040625 -3 14 C-3.33 14 -3.66 14 -4 14 C-3.53328373 8.58609132 -2.75702189 4.79482068 0 0 Z " fill="#8874C3" transform="translate(270,304)"/>
<path d="M0 0 C2.96659857 3.55991828 5.381348 7.65222543 7 12 C6.67 12.66 6.34 13.32 6 14 C2.67016949 11.30442292 1.45548306 7.95059687 0 4 C0 2.68 0 1.36 0 0 Z " fill="#8F7CC1" transform="translate(355,205)"/>
<path d="M0 0 C0.99 0.495 0.99 0.495 2 1 C2 1.66 2 2.32 2 3 C3.32 3.33 4.64 3.66 6 4 C5.25 9.75 5.25 9.75 3 12 C2.67 11.01 2.34 10.02 2 9 C2.66 9 3.32 9 4 9 C4 8.34 4 7.68 4 7 C3.34 7 2.68 7 2 7 C1.34 4.69 0.68 2.38 0 0 Z " fill="#7A5FC2" transform="translate(260,312)"/>
<path d="M0 0 C0.66 0.33 1.32 0.66 2 1 C2 1.99 2 2.98 2 4 C5.3 4.33 8.6 4.66 12 5 C12 5.33 12 5.66 12 6 C6.06 6.495 6.06 6.495 0 7 C-1 2 -1 2 0 0 Z " fill="#7962B5" transform="translate(83,326)"/>
<path d="M0 0 C0.66 0.33 1.32 0.66 2 1 C1.39301257 5.12751449 -0.03810791 8.3321148 -2 12 C-2.66 11.01 -3.32 10.02 -4 9 C-3.25 5.875 -3.25 5.875 -2 3 C-1.34 2.67 -0.68 2.34 0 2 C0 1.34 0 0.68 0 0 Z " fill="#7B62B3" transform="translate(123,313)"/>
<path d="M0 0 C3.42931954 3.7559214 4.56429083 8.23466745 6 13 C3 12 3 12 2.05078125 10.29296875 C1.80714844 9.59816406 1.56351563 8.90335938 1.3125 8.1875 C1.06113281 7.50042969 0.80976563 6.81335938 0.55078125 6.10546875 C0 4 0 4 0 0 Z " fill="#7C69B4" transform="translate(229,245)"/>
<path d="M0 0 C0.99 0.33 1.98 0.66 3 1 C1.25 6.75 1.25 6.75 -1 9 C-1 8.34 -1 7.68 -1 7 C-1.66 7 -2.32 7 -3 7 C-3 3 -3 3 -1.5 1.25 C-1.005 0.8375 -0.51 0.425 0 0 Z " fill="#9174CC" transform="translate(303,232)"/>
<path d="M0 0 C3 1 3 1 4.6875 3.6875 C6.03558623 7.08981286 6.25833766 9.38327271 6 13 C4.43926745 10.65890118 3.13626133 8.43666597 1.875 5.9375 C1.34519531 4.89916016 1.34519531 4.89916016 0.8046875 3.83984375 C0 2 0 2 0 0 Z " fill="#7562AC" transform="translate(179,216)"/>
<path d="M0 0 C2 1 2 1 2.8515625 3.06640625 C3.10679687 3.89011719 3.36203125 4.71382812 3.625 5.5625 C3.88539063 6.38878906 4.14578125 7.21507812 4.4140625 8.06640625 C4.60742188 8.70449219 4.80078125 9.34257812 5 10 C3.68 9.67 2.36 9.34 1 9 C-1.125 2.25 -1.125 2.25 0 0 Z " fill="#7864B8" transform="translate(202,188)"/>
<path d="M0 0 C1.06775224 1.96466413 2.06553465 3.96855359 3 6 C2.67 6.66 2.34 7.32 2 8 C1.34 8 0.68 8 0 8 C-0.33 6.35 -0.66 4.7 -1 3 C-1.66 3 -2.32 3 -3 3 C-3.33 3.66 -3.66 4.32 -4 5 C-4.33 4.34 -4.66 3.68 -5 3 C-2.25 0 -2.25 0 0 0 Z " fill="#745FB5" transform="translate(199,179)"/>
<path d="M0 0 C3.875 1.875 3.875 1.875 5 3 C5.04092937 5.33297433 5.04241723 7.66705225 5 10 C3 9 3 9 2.1484375 6.93359375 C1.89320313 6.10988281 1.63796875 5.28617187 1.375 4.4375 C1.11460937 3.61121094 0.85421875 2.78492188 0.5859375 1.93359375 C0.39257812 1.29550781 0.19921875 0.65742188 0 0 Z " fill="#8E78C7" transform="translate(362,296)"/>
<path d="M0 0 C0.99 0 1.98 0 3 0 C1.41037341 4.03520597 -0.28232318 8.01811282 -2 12 C-2.33 12 -2.66 12 -3 12 C-2.67 9.03 -2.34 6.06 -2 3 C-1.34 3 -0.68 3 0 3 C0 2.01 0 1.02 0 0 Z " fill="#7A62B5" transform="translate(137,284)"/>
<path d="M0 0 C0.66 0 1.32 0 2 0 C2.99 1.98 3.98 3.96 5 6 C5.66 6 6.32 6 7 6 C7 6.99 7 7.98 7 9 C5.68 9 4.36 9 3 9 C0 3.375 0 3.375 0 0 Z " fill="#836AB5" transform="translate(241,273)"/>
<path d="M0 0 C0.66 0 1.32 0 2 0 C1.5205537 4.21912747 0.83374881 6.79663178 -2 10 C-2.33 8.35 -2.66 6.7 -3 5 C-2.34 5 -1.68 5 -1 5 C-0.67 3.35 -0.34 1.7 0 0 Z " fill="#876BC9" transform="translate(298,243)"/>
<path d="M0 0 C0.20086443 3.71599191 0.1519437 4.77208445 -2 8 C-2.66 8 -3.32 8 -4 8 C-4 5.69 -4 3.38 -4 1 C-2 0 -2 0 0 0 Z " fill="#6045A8" transform="translate(165,158)"/>
<path d="M0 0 C0.33 0 0.66 0 1 0 C1 3.33333333 1 6.66666667 1 10 C0.34 10 -0.32 10 -1 10 C-1 9.34 -1 8.68 -1 8 C-1.66 8 -2.32 8 -3 8 C-2.37240135 5.07120629 -1.41377341 2.63904371 0 0 Z " fill="#836FC5" transform="translate(299,172)"/>
<path d="M0 0 C0.99 0 1.98 0 3 0 C3 1.65 3 3.3 3 5 C1.02 5.99 1.02 5.99 -1 7 C-1.625 4.625 -1.625 4.625 -2 2 C-1.34 1.34 -0.68 0.68 0 0 Z " fill="#664BA7" transform="translate(115,326)"/>
<path d="M0 0 C0.66 0 1.32 0 2 0 C2 0.99 2 1.98 2 3 C2.66 3 3.32 3 4 3 C4 4.32 4 5.64 4 7 C4.66 7 5.32 7 6 7 C6.33 7.99 6.66 8.98 7 10 C6.34 10.66 5.68 11.32 5 12 C4.16440201 10.18854294 3.33157951 8.37580533 2.5 6.5625 C2.0359375 5.55316406 1.571875 4.54382813 1.09375 3.50390625 C0 1 0 1 0 0 Z " fill="#8772BD" transform="translate(224,311)"/>
<path d="M0 0 C0 1.65 0 3.3 0 5 C-0.33 4.34 -0.66 3.68 -1 3 C-2.65 3.33 -4.3 3.66 -6 4 C-6 2.68 -6 1.36 -6 0 C-3 -1 -3 -1 0 0 Z " fill="#5D44A9" transform="translate(216,216)"/>
<path d="M0 0 C2.64465038 3.1254959 3.84414715 6.08788267 5 10 C2 9 2 9 0.25 5.5625 C-0.1625 4.386875 -0.575 3.21125 -1 2 C-0.67 1.34 -0.34 0.68 0 0 Z " fill="#9181C4" transform="translate(403,307)"/>
<path d="M0 0 C2 1 2 1 2.8515625 3.06640625 C3.10679687 3.89011719 3.36203125 4.71382813 3.625 5.5625 C3.88539063 6.38878906 4.14578125 7.21507812 4.4140625 8.06640625 C4.60742188 8.70449219 4.80078125 9.34257812 5 10 C4.01 10.495 4.01 10.495 3 11 C0 4.5 0 4.5 0 0 Z " fill="#8E77BD" transform="translate(383,265)"/>
<path d="M0 0 C2.17282078 3.25923117 2.76261647 5.12273569 3 9 C1.5625 11.375 1.5625 11.375 0 13 C-0.66 11.35 -1.32 9.7 -2 8 C-1.01 8 -0.02 8 1 8 C0.67 5.36 0.34 2.72 0 0 Z " fill="#8D75D1" transform="translate(292,249)"/>
<path d="M0 0 C0.66 0 1.32 0 2 0 C1.39009109 3.55780196 0.4216319 6.6828589 -1 10 C-1.33 10 -1.66 10 -2 10 C-2.17942163 6.05272412 -2.09350689 3.4019487 0 0 Z " fill="#7962AC" transform="translate(128,303)"/>
<path d="M0 0 C3.875 1.875 3.875 1.875 5 3 C5.04080783 4.99958364 5.04254356 7.00045254 5 9 C2.67527795 6.14693203 1.2491742 3.45925163 0 0 Z " fill="#8F80BA" transform="translate(209,280)"/>
<path d="M0 0 C0.66 0 1.32 0 2 0 C1.46930939 3.82097239 0.50298434 6.06171403 -2 9 C-1.125 1.125 -1.125 1.125 0 0 Z " fill="#765DB2" transform="translate(142,274)"/>
<path d="M0 0 C2.0625 0.4375 2.0625 0.4375 4 1 C3.34 1.66 2.68 2.32 2 3 C1.60235737 4.98821313 1.26224651 6.98944339 1 9 C-1.14809171 5.77786243 -1.29386153 4.72224599 -1 1 C-0.67 0.67 -0.34 0.34 0 0 Z " fill="#7C65BF" transform="translate(315,204)"/>
<path d="M0 0 C0 0.66 0 1.32 0 2 C-1.98 2.66 -3.96 3.32 -6 4 C-6 3.34 -6 2.68 -6 2 C-7.32 2.33 -8.64 2.66 -10 3 C-9 1 -9 1 -7.25 0.375 C-4.79549443 -0.03408426 -2.4840589 -0.06900164 0 0 Z " fill="#9386D0" transform="translate(316,155)"/>
<path d="M0 0 C0.33 0.66 0.66 1.32 1 2 C1.99 2.33 2.98 2.66 4 3 C3.67 4.32 3.34 5.64 3 7 C2.67 6.01 2.34 5.02 2 4 C1.34 4.66 0.68 5.32 0 6 C-0.66 5.67 -1.32 5.34 -2 5 C-1.34 3.35 -0.68 1.7 0 0 Z " fill="#7259C7" transform="translate(404,314)"/>
<path d="M0 0 C0.99 0 1.98 0 3 0 C1.25 5.75 1.25 5.75 -1 8 C-1.625 5.6875 -1.625 5.6875 -2 3 C-1.34 2.01 -0.68 1.02 0 0 Z " fill="#8470BE" transform="translate(168,220)"/>
<path d="M0 0 C1.66666667 0 3.33333333 0 5 0 C5 1.98 5 3.96 5 6 C4.01 6.495 4.01 6.495 3 7 C2.67 6.01 2.34 5.02 2 4 C1.34 3.67 0.68 3.34 0 3 C0 2.01 0 1.02 0 0 Z " fill="#5B3EAD" transform="translate(179,213)"/>
<path d="M0 0 C-1.75 1.5625 -1.75 1.5625 -4 3 C-6.25 2.6875 -6.25 2.6875 -8 2 C-5.14066998 -0.85933002 -3.8625627 -1.2875209 0 0 Z " fill="#7C65B4" transform="translate(261,330)"/>
<path d="M0 0 C0.99 0 1.98 0 3 0 C1.25 5.75 1.25 5.75 -1 8 C-1.93065133 5.39417629 -2.14917407 4.35801776 -1.0625 1.75 C-0.711875 1.1725 -0.36125 0.595 0 0 Z " fill="#A48AD0" transform="translate(273,298)"/>
<path d="M0 0 C0.33 0 0.66 0 1 0 C0.67 2.64 0.34 5.28 0 8 C-0.99 8 -1.98 8 -3 8 C-1.125 2.25 -1.125 2.25 0 0 Z " fill="#7965B0" transform="translate(98,294)"/>
<path d="M0 0 C0.99 0.33 1.98 0.66 3 1 C1.25 6.75 1.25 6.75 -1 9 C-0.67 6.03 -0.34 3.06 0 0 Z " fill="#725FB4" transform="translate(160,235)"/>
<path d="M0 0 C0.99 1.32 1.98 2.64 3 4 C2.67 4.66 2.34 5.32 2 6 C1.34 5.67 0.68 5.34 0 5 C-0.33 5.66 -0.66 6.32 -1 7 C-1.625 5.1875 -1.625 5.1875 -2 3 C-1.34 2.01 -0.68 1.02 0 0 Z " fill="#856ED0" transform="translate(323,206)"/>
<path d="M0 0 C0.99 0.33 1.98 0.66 3 1 C3.33 1.99 3.66 2.98 4 4 C3.34 4.66 2.68 5.32 2 6 C2 5.34 2 4.68 2 4 C1.34 4 0.68 4 0 4 C-0.33 4.66 -0.66 5.32 -1 6 C-1.33 5.01 -1.66 4.02 -2 3 C-1.34 2.34 -0.68 1.68 0 1 C0 0.67 0 0.34 0 0 Z " fill="#9176CF" transform="translate(318,203)"/>
<path d="M0 0 C2.97 0 5.94 0 9 0 C9.33 1.65 9.66 3.3 10 5 C9.649375 4.525625 9.29875 4.05125 8.9375 3.5625 C6.15836457 1.32126175 3.4855283 1.32882342 0 1 C0 0.67 0 0.34 0 0 Z " fill="#7460AF" transform="translate(324,157)"/>
</svg>
